<svg xmlns="http://www.w3.org/2000/svg" viewBox="0 0 100 100">
  <defs>
    <linearGradient id="g" x1="0" y1="0" x2="1" y2="1">
      <stop offset="0" stop-color="#7c3aed"/>
      <stop offset="0.55" stop-color="#ec4899"/>
      <stop offset="1" stop-color="#f59e0b"/>
    </linearGradient>
  </defs>
  <rect width="100" height="100" rx="24" fill="url(#g)"/>
  <path fill="#fff" d="M32.95 58.400999999999996H45.908Q46.094 60.695 47.272000000000006 61.748999999999995Q48.45 62.803 50.31 62.803Q51.984 62.803 53.069 61.965999999999994Q54.153999999999996 61.129 54.153999999999996 59.641Q54.153999999999996 57.719 52.355999999999995 56.665000000000006Q50.558 55.611000000000004 46.528 54.309Q42.25 52.882999999999996 39.615 51.55Q36.980000000000004 50.217 35.027 47.644Q33.074 45.071 33.074 40.917Q33.074 36.701 35.182 33.694Q37.29 30.686999999999998 41.010000000000005 29.136999999999997Q44.730000000000004 27.586999999999996 49.442 27.586999999999996Q57.068 27.586999999999996 61.625 31.151999999999997Q66.182 34.717 66.492 41.165H53.286Q53.224000000000004 39.181 52.077 38.189Q50.93 37.197 49.132000000000005 37.197Q47.768 37.197 46.900000000000006 38.003Q46.032000000000004 38.809 46.032000000000004 40.297Q46.032000000000004 41.537 46.993 42.436Q47.954 43.335 49.379999999999995 43.986000000000004Q50.806 44.637 53.596000000000004 45.629Q57.75 47.055 60.447 48.45Q63.144 49.845 65.09700000000001 52.356Q67.05000000000001 54.867000000000004 67.05000000000001 58.711Q67.05000000000001 62.617 65.09700000000001 65.717Q63.144 68.817 59.455 70.615Q55.766000000000005 72.413 50.744 72.413Q43.118 72.413 38.22 68.786Q33.322 65.15899999999999 32.95 58.400999999999996Z"/>
</svg>
